<?xml version="1.0" standalone="no"?>
<!DOCTYPE svg PUBLIC "-//W3C//DTD SVG 20010904//EN"
 "http://www.w3.org/TR/2001/REC-SVG-20010904/DTD/svg10.dtd">
<svg version="1.0" xmlns="http://www.w3.org/2000/svg"
 width="1024.000000pt" height="1024.000000pt" viewBox="0 0 1024.000000 1024.000000"
 preserveAspectRatio="xMidYMid meet">

<g transform="translate(0.000000,1024.000000) scale(0.100000,-0.100000)"
fill="#000000" stroke="none">
<path d="M4910 8790 c-270 -16 -516 -57 -785 -131 -383 -105 -795 -301 -1115
-532 -508 -366 -887 -800 -1162 -1332 -225 -437 -347 -845 -398 -1330 -15
-143 -15 -549 -1 -690 99 -943 565 -1837 1274 -2443 571 -488 1228 -775 1987
-869 202 -24 660 -24 845 1 843 113 1525 440 2136 1024 506 484 895 1195 1038
1899 59 289 66 366 66 743 0 328 -2 354 -28 525 -227 1459 -1278 2636 -2692
3015 -364 98 -795 142 -1165 120z m585 -256 c586 -65 1202 -308 1675 -660 281
-209 556 -486 746 -751 299 -418 523 -952 599 -1426 74 -462 58 -939 -45
-1362 -152 -621 -468 -1194 -895 -1620 -502 -502 -1088 -823 -1750 -959 -657
-135 -1402 -67 -2017 185 -320 131 -653 335 -913 560 -660 571 -1068 1326
-1192 2204 -25 183 -26 633 0 825 117 876 536 1639 1212 2211 722 610 1656
897 2580 793z"/>
<path d="M5863 7422 c-144 -58 -234 -200 -219 -344 9 -89 40 -150 107 -212 68
-63 130 -88 219 -87 125 0 253 93 300 219 46 121 3 287 -95 367 -87 72 -217
95 -312 57z"/>
<path d="M2631 7131 c8 -11 46 -60 84 -109 l70 -90 295 -4 c231 -4 305 -8 341
-21 220 -74 349 -248 349 -471 0 -141 -43 -249 -136 -341 -98 -97 -217 -135
-421 -135 -97 0 -123 -3 -123 -13 0 -14 176 -503 420 -1167 77 -212 155 -423
172 -470 17 -47 35 -89 40 -95 5 -5 60 -10 124 -10 110 0 115 1 111 20 -3 11
-54 151 -115 310 -155 411 -444 1206 -439 1211 2 2 38 13 80 23 258 66 449
256 503 499 24 108 15 280 -19 387 -66 201 -216 361 -417 442 -117 47 -184 53
-572 53 -355 0 -360 0 -347 -19z"/>
<path d="M4691 6762 c-74 -163 -195 -429 -268 -591 -73 -161 -142 -323 -153
-358 -67 -218 38 -477 249 -615 102 -67 190 -93 311 -92 329 2 594 274 578
594 -6 103 -1 91 -248 640 -311 689 -325 720 -330 720 -3 0 -65 -134 -139
-298z"/>
<path d="M5870 5875 l0 -755 95 0 95 0 0 755 0 755 -95 0 -95 0 0 -755z"/>
<path d="M6578 6623 c-2 -5 -2 -344 0 -755 l2 -748 90 0 90 0 0 560 c0 308 3
560 8 560 8 -1 127 -166 538 -744 l267 -376 74 0 73 0 0 755 0 756 -92 -3 -93
-3 -5 -565 -5 -565 -151 210 c-83 116 -262 371 -398 568 l-248 357 -73 0 c-41
0 -75 -3 -77 -7z"/>
<path d="M2530 4965 l0 -1475 115 0 115 0 0 1475 0 1475 -115 0 -115 0 0
-1475z"/>
<path d="M5895 4944 c-111 -34 -212 -130 -257 -244 -17 -42 -22 -77 -22 -150
-1 -83 3 -102 26 -152 69 -148 228 -247 379 -236 33 2 59 0 59 -4 0 -5 -44
-111 -99 -236 -54 -125 -111 -256 -126 -292 -15 -36 -77 -177 -137 -315 -130
-295 -248 -567 -248 -571 0 -2 42 -4 93 -4 l93 0 26 63 c38 92 549 1267 622
1431 94 208 100 228 100 331 0 118 -25 184 -101 265 -80 86 -158 123 -272 127
-56 2 -103 -3 -136 -13z m205 -165 c95 -43 144 -117 144 -219 0 -138 -96 -234
-234 -234 -213 0 -316 248 -166 398 72 73 171 94 256 55z"/>
<path d="M4635 4930 c-269 -71 -471 -270 -547 -537 -17 -61 -22 -104 -22 -198
1 -107 4 -130 32 -215 84 -254 289 -443 548 -505 114 -27 284 -18 396 22 150
53 302 166 384 286 39 58 91 174 111 247 27 100 24 283 -6 380 -80 261 -280
455 -537 520 -102 26 -261 26 -359 0z m377 -183 c187 -72 323 -230 363 -422
27 -129 15 -233 -41 -354 -145 -315 -526 -436 -819 -260 -165 98 -285 304
-285 489 0 235 168 469 395 548 88 31 90 31 210 28 90 -3 122 -8 177 -29z"/>
<path d="M6570 4220 l0 -730 95 0 95 0 0 236 0 236 157 159 c125 126 159 157
169 147 7 -7 106 -161 221 -343 115 -181 224 -354 243 -382 l35 -53 98 0 c85
0 98 2 93 15 -3 9 -73 122 -155 253 -82 130 -208 331 -281 447 l-131 209 265
259 c146 142 266 263 266 268 0 5 -53 9 -117 9 l-118 0 -372 -372 -373 -373 0
373 0 372 -95 0 -95 0 0 -730z"/>
</g>
</svg>
